<?xml version="1.0" standalone="no"?>
<!DOCTYPE svg PUBLIC "-//W3C//DTD SVG 20010904//EN"
 "http://www.w3.org/TR/2001/REC-SVG-20010904/DTD/svg10.dtd">
<svg version="1.0" xmlns="http://www.w3.org/2000/svg"
 width="1000.000000pt" height="1000.000000pt" viewBox="0 0 1000.000000 1000.000000"
 preserveAspectRatio="xMidYMid meet">
<metadata>
Created by potrace 1.11, written by Peter Selinger 2001-2013
</metadata>
<g transform="translate(0.000000,1000.000000) scale(0.100000,-0.100000)"
fill="#000000" stroke="none">
<path d="M0 5000 l0 -5000 5000 0 5000 0 0 5000 0 5000 -5000 0 -5000 0 0
-5000z m3751 4045 c710 -78 1311 -274 1838 -600 351 -217 616 -467 861 -811
15 -21 19 -21 155 -13 76 4 141 6 143 4 3 -2 5 -671 5 -1487 0 -1640 3 -1555
-64 -1795 -150 -534 -582 -1045 -1172 -1388 -27 -15 -45 -31 -40 -35 4 -4 69
-22 143 -39 305 -70 572 -106 903 -123 l237 -12 0 -433 c0 -394 -2 -434 -17
-440 -23 -9 -445 14 -583 32 -419 54 -794 147 -1140 282 -143 56 -448 204
-558 272 -67 41 -88 49 -112 44 -17 -3 -30 -9 -30 -13 0 -9 110 -76 265 -162
544 -302 1265 -490 1990 -516 l180 -7 3 -439 2 -439 -192 6 c-644 21 -1263
168 -1822 432 -472 223 -927 594 -1160 944 l-49 74 -149 -7 -148 -6 3 1527 3
1528 22 98 c140 608 527 1103 1175 1501 42 27 77 51 77 55 0 9 -313 77 -490
106 -175 28 -419 52 -632 61 l-158 6 0 441 0 440 163 -7 c587 -25 1092 -127
1587 -321 141 -56 411 -187 521 -255 81 -50 102 -59 128 -54 17 4 31 10 31 14
0 27 -493 284 -698 364 -474 185 -1010 293 -1554 313 l-178 6 0 440 0 440 184
-6 c101 -4 248 -14 327 -22z"/>
<path d="M6722 6990 c0 -14 2 -19 5 -12 2 6 2 18 0 25 -3 6 -5 1 -5 -13z"/>
<path d="M6731 6944 c0 -11 3 -14 6 -6 3 7 2 16 -1 19 -3 4 -6 -2 -5 -13z"/>
<path d="M6420 6734 c0 -15 43 -64 56 -64 18 0 18 6 -3 41 -15 25 -53 41 -53
23z"/>
<path d="M6504 6608 c41 -66 117 -225 141 -296 9 -29 19 -52 21 -50 7 7 -33
123 -68 198 -20 41 -37 80 -39 85 -15 40 -65 115 -75 115 -9 0 -2 -19 20 -52z"/>
<path d="M5540 6599 c-935 -253 -1633 -711 -2017 -1325 -115 -183 -247 -501
-225 -541 5 -8 16 16 31 64 31 108 144 337 228 463 303 458 818 849 1443 1098
159 63 401 141 553 178 64 15 117 31 117 34 0 9 -61 40 -78 39 -9 0 -33 -5
-52 -10z"/>
<path d="M6287 5784 c-593 -59 -1129 -209 -1602 -448 -504 -256 -871 -566
-1131 -956 l-66 -100 25 -39 26 -39 63 5 c1058 82 1995 477 2570 1082 102 108
220 256 287 363 37 59 41 70 30 90 -17 33 -40 58 -53 57 -6 -1 -73 -7 -149
-15z"/>
<path d="M6675 5238 c-11 -52 -92 -245 -138 -328 -260 -475 -688 -860 -1272
-1145 -275 -134 -541 -231 -827 -301 -65 -16 -118 -31 -118 -34 0 -11 59 -40
82 -40 59 0 445 125 665 216 128 53 402 194 523 270 432 271 763 611 961 988
48 92 139 316 139 343 0 8 4 12 8 9 5 -3 6 8 4 25 -6 38 -19 37 -27 -3z"/>
<path d="M3508 3321 c-16 -5 -14 -11 15 -41 18 -19 47 -48 65 -65 l33 -30 -35
59 c-20 33 -36 63 -36 67 0 11 -24 17 -42 10z"/>
<path d="M3620 3176 c0 -2 8 -10 18 -17 15 -13 16 -12 3 4 -13 16 -21 21 -21
13z"/>
<path d="M3660 3126 c0 -2 8 -10 18 -17 15 -13 16 -12 3 4 -13 16 -21 21 -21
13z"/>
<path d="M3740 3035 c13 -14 26 -25 28 -25 3 0 -5 11 -18 25 -13 14 -26 25
-28 25 -3 0 5 -11 18 -25z"/>
<path d="M3820 2945 c13 -14 26 -25 28 -25 3 0 -5 11 -18 25 -13 14 -26 25
-28 25 -3 0 5 -11 18 -25z"/>
<path d="M3895 2870 c10 -11 20 -20 23 -20 3 0 -3 9 -13 20 -10 11 -20 20 -23
20 -3 0 3 -9 13 -20z"/>
<path d="M3985 2790 c10 -11 20 -20 23 -20 3 0 -3 9 -13 20 -10 11 -20 20 -23
20 -3 0 3 -9 13 -20z"/>
<path d="M4065 2724 c6 -5 23 -20 40 -34 29 -24 29 -24 10 -2 -11 13 -29 28
-40 34 -11 6 -15 6 -10 2z"/>
<path d="M4180 2636 c0 -2 8 -10 18 -17 15 -13 16 -12 3 4 -13 16 -21 21 -21
13z"/>
<path d="M4280 2567 c0 -2 15 -14 33 -27 20 -15 27 -17 18 -6 -13 16 -51 41
-51 33z"/>
</g>
</svg>
